<svg xmlns="http://www.w3.org/2000/svg" width="400" height="400" viewBox="0 0 400 400" fill="none">
  <!-- Background Circle -->
  <circle cx="200" cy="200" r="180" fill="#F0F0FF" />
  
  <!-- Head -->
  <circle cx="200" cy="150" r="70" fill="#FFD3B6" />
  
  <!-- Hair -->
  <path d="M130 120C130 120 140 80 200 80C260 80 270 120 270 120V150C270 150 260 140 250 145C240 150 240 160 240 160C240 160 220 140 200 145C180 150 180 170 180 170C180 170 160 150 150 155C140 160 140 170 140 170L130 150V120Z" fill="#333333" />
  
  <!-- Face -->
  <ellipse cx="175" cy="140" rx="5" ry="7" fill="#333333" />
  <ellipse cx="225" cy="140" rx="5" ry="7" fill="#333333" />
  <path d="M190 170C190 170 200 180 210 170" stroke="#333333" stroke-width="3" stroke-linecap="round" />
  
  <!-- Neck -->
  <path d="M180 220V250H220V220" fill="#FFD3B6" />
  
  <!-- Body/Shirt -->
  <path d="M150 250H250V350H150V250Z" fill="#6C63FF" />
  <path d="M150 250H250V270C250 270 220 280 200 280C180 280 150 270 150 270V250Z" fill="#5A52E0" />
  
  <!-- Arms -->
  <path d="M150 250L120 300V350H150" fill="#6C63FF" />
  <path d="M250 250L280 300V350H250" fill="#6C63FF" />
  
  <!-- Decorative Elements -->
  <circle cx="200" cy="300" r="10" fill="white" />
  <circle cx="200" cy="330" r="10" fill="white" />
  
  <!-- Glasses -->
  <rect x="165" y="135" width="20" height="10" rx="5" fill="none" stroke="#333333" stroke-width="2" />
  <rect x="215" y="135" width="20" height="10" rx="5" fill="none" stroke="#333333" stroke-width="2" />
  <line x1="185" y1="140" x2="215" y2="140" stroke="#333333" stroke-width="2" />
</svg>